<?xml version="1.0" standalone="no"?>
<!DOCTYPE svg PUBLIC "-//W3C//DTD SVG 20010904//EN"
 "http://www.w3.org/TR/2001/REC-SVG-20010904/DTD/svg10.dtd">
<svg version="1.0" xmlns="http://www.w3.org/2000/svg"
 width="438.000000pt" height="245.000000pt" viewBox="0 0 438.000000 245.000000"
 preserveAspectRatio="xMidYMid meet">

<g transform="translate(0.000000,245.000000) scale(0.100000,-0.100000)"
fill="#000000" stroke="none">
<path d="M273 2438 c-37 -18 -34 -60 8 -103 16 -17 29 -36 29 -42 0 -7 -20
-29 -45 -49 -45 -38 -45 -38 -39 -89 6 -48 4 -53 -21 -73 -15 -12 -38 -22 -50
-22 -31 0 -69 -43 -60 -69 3 -12 14 -21 22 -21 9 0 -4 -10 -28 -23 -90 -48
-112 -132 -65 -251 14 -34 43 -135 66 -225 80 -320 193 -549 399 -808 185
-234 477 -402 796 -458 291 -50 678 -43 889 17 38 11 90 18 115 17 25 -2 66 4
91 13 25 8 72 22 105 29 54 13 60 17 63 42 6 48 -11 57 -107 57 -50 0 -92 5
-98 11 -8 8 -18 6 -38 -7 -24 -16 -34 -16 -84 -6 -32 7 -81 12 -109 12 -29 0
-52 4 -52 9 0 5 11 22 24 38 37 45 47 68 34 81 -28 28 -90 -3 -154 -75 l-42
-47 -93 23 c-260 64 -451 179 -616 372 -218 254 -272 416 -304 911 -14 208
-11 218 45 218 17 0 60 -9 95 -20 66 -21 101 -19 101 6 0 35 -78 82 -213 128
-42 15 -98 40 -124 56 -26 17 -52 30 -59 30 -7 0 -16 9 -19 20 -8 25 -28 36
-85 45 -75 12 -112 31 -110 57 4 47 3 48 -69 48 -83 0 -95 10 -86 73 6 38 4
48 -14 66 -23 23 -62 26 -98 9z m68 -8 c34 -19 23 -40 -20 -40 -22 0 -42 -5
-44 -12 -3 -7 -6 -4 -6 6 -1 20 25 56 41 56 5 0 18 -5 29 -10z m114 -170 c4
-6 -5 -10 -20 -10 -15 0 -24 4 -20 10 3 6 12 10 20 10 8 0 17 -4 20 -10z m55
-87 c19 -9 29 -17 23 -20 -7 -3 -13 -16 -13 -29 0 -15 -6 -24 -16 -24 -22 0
-74 58 -74 82 0 21 12 20 80 -9z m-75 -43 c4 -6 -11 -10 -37 -10 -24 0 -54 -3
-68 -5 -22 -5 -21 -3 5 9 35 17 91 21 100 6z m189 -34 c-3 -8 -1 -24 6 -35 12
-23 1 -28 -18 -9 -9 9 -12 6 -12 -15 0 -42 -28 -46 -60 -9 -31 38 -40 40 -40
10 0 -17 -3 -19 -12 -10 -16 16 -115 15 -173 -2 -26 -8 -44 -11 -39 -6 10 10
298 87 331 89 15 1 21 -3 17 -13z m313 -82 c9 -24 -9 -64 -37 -85 -33 -24
-202 -66 -312 -78 -65 -6 -105 -17 -155 -41 -90 -44 -123 -53 -123 -34 0 16
-5 17 -48 8 -18 -4 -32 -14 -35 -25 -6 -24 -24 -24 -64 1 -36 22 -43 53 -16
69 16 9 15 10 -7 11 -14 0 -31 -4 -38 -8 -17 -12 -33 -70 -26 -101 5 -25 5
-26 -11 -6 -53 66 -15 131 88 150 33 6 37 5 37 -13 0 -11 6 -24 13 -30 18 -15
64 -25 84 -18 15 6 14 8 -2 20 -10 7 -15 18 -11 24 3 6 -3 16 -15 22 -27 15
-22 19 52 36 35 8 118 30 184 49 203 59 428 84 442 49z m-737 -23 c-8 -5 -26
-12 -40 -15 l-25 -7 25 15 c14 9 32 15 40 15 13 0 13 -1 0 -8z m920 -56 c22
-27 5 -34 -25 -9 -27 22 -28 24 -9 24 12 0 27 -7 34 -15z m-244 -101 c4 -14 4
-59 1 -99 -3 -43 -1 -77 5 -83 5 -5 8 -44 6 -86 -2 -42 1 -76 5 -76 5 0 7 -23
5 -50 -2 -35 1 -50 10 -50 14 0 14 -2 6 -24 -3 -9 -12 -16 -20 -16 -8 0 -14
-6 -14 -14 0 -8 -3 -23 -6 -33 -4 -14 -1 -13 12 5 9 12 20 22 24 22 5 0 13
-24 20 -52 20 -86 50 -192 62 -212 8 -15 6 -21 -6 -28 -23 -13 -20 -26 14 -55
17 -13 30 -32 30 -41 0 -14 2 -15 10 -2 7 12 13 9 34 -13 15 -16 42 -54 62
-85 20 -31 54 -76 76 -99 22 -22 37 -46 34 -52 -4 -6 12 -31 36 -57 42 -46
116 -90 193 -114 22 -7 58 -30 81 -50 44 -40 103 -65 135 -57 12 3 19 0 19 -9
0 -12 84 -44 116 -44 25 0 25 -20 1 -29 -29 -11 -126 11 -229 52 -75 31 -126
34 -168 12 -31 -16 -39 -9 -17 15 6 7 -4 1 -23 -14 l-34 -28 -25 28 c-13 16
-33 29 -45 30 -52 2 -66 14 -61 50 2 19 1 34 -3 34 -35 0 -129 23 -148 35 -34
22 -32 47 4 43 19 -2 27 -9 27 -22 0 -23 47 -39 84 -31 23 6 22 8 -30 61 -54
55 -149 110 -292 169 -37 15 -72 34 -78 42 -17 19 4 17 49 -6 20 -10 44 -16
52 -14 13 4 13 3 0 -6 -12 -8 -8 -11 18 -11 26 0 32 4 32 20 0 34 -29 68 -68
81 -20 6 -51 24 -68 39 l-31 27 31 9 c44 13 44 41 0 92 -41 48 -54 49 -30 3
19 -35 19 -41 6 -41 -5 0 -12 11 -16 25 -6 24 -47 65 -65 65 -5 0 -9 -9 -9
-20 0 -11 -4 -20 -10 -20 -5 0 -10 5 -10 10 0 6 -11 10 -25 10 -28 0 -45 25
-45 65 0 19 -13 39 -42 65 l-41 39 41 -6 c49 -7 55 8 23 49 -13 15 -18 33 -14
46 3 14 1 22 -7 22 -7 0 -10 -7 -6 -15 3 -8 0 -15 -6 -15 -7 0 -22 -9 -34 -21
-32 -30 -45 -17 -37 39 6 43 5 46 -10 33 -10 -8 -17 -28 -17 -47 0 -24 -5 -34
-15 -34 -23 0 -18 -11 20 -50 35 -36 35 -37 16 -54 -25 -23 -38 -15 -51 35 -7
27 -21 46 -40 58 -23 14 -27 20 -17 30 9 10 5 19 -22 42 l-33 31 23 24 c27 29
55 31 69 4 6 -11 7 -20 1 -20 -16 0 -21 -29 -9 -55 19 -43 38 -31 38 25 0 62
-31 100 -80 100 -24 0 -33 6 -40 26 -13 32 -13 34 3 34 7 0 17 10 22 23 7 15
21 24 44 27 48 7 60 30 38 75 -26 55 -23 62 33 67 49 5 95 32 84 49 -3 5 9 9
27 9 18 0 37 7 44 17 10 14 18 15 54 6 44 -12 51 -8 24 13 -22 15 -17 18 77
38 99 21 109 20 116 -10z m-736 -104 c0 -5 -4 -10 -10 -10 -5 0 -10 5 -10 10
0 6 5 10 10 10 6 0 10 -4 10 -10z m240 -69 c0 -24 -33 -36 -57 -22 -16 9 -15
11 7 12 25 1 24 1 -5 14 l-30 14 43 1 c35 0 42 -3 42 -19z m-130 -26 c-12 -15
-30 -12 -30 6 0 5 10 9 21 9 18 0 19 -2 9 -15z m47 -21 c-3 -3 -12 -4 -19 -1
-8 3 -5 6 6 6 11 1 17 -2 13 -5z m-37 -84 c0 -13 -11 -13 -30 0 -12 8 -11 10
8 10 12 0 22 -4 22 -10z m-100 -46 c0 -8 -4 -12 -10 -9 -5 3 -10 13 -10 21 0
8 5 12 10 9 6 -3 10 -13 10 -21z m90 6 c0 -5 -7 -10 -15 -10 -8 0 -15 5 -15
10 0 6 7 10 15 10 8 0 15 -4 15 -10z m-15 -30 c3 -6 -1 -7 -9 -4 -18 7 -21 14
-7 14 6 0 13 -4 16 -10z m-14 -142 c4 -16 4 -28 -2 -28 -5 0 -5 -7 1 -17 25
-46 59 -144 45 -133 -14 12 -27 36 -100 193 -30 66 -27 87 6 36 11 -19 18 -26
15 -16 -3 11 -9 31 -12 45 -4 22 -1 19 17 -13 12 -21 25 -52 30 -67z m144 -58
c-3 -5 -10 -10 -16 -10 -5 0 -9 5 -9 10 0 6 7 10 16 10 8 0 12 -4 9 -10z m202
-119 c6 -23 23 -56 37 -72 25 -30 33 -49 20 -49 -4 0 -44 18 -89 40 -51 25
-86 49 -95 65 -18 33 -6 42 33 26 74 -30 91 -25 66 21 -9 16 -8 19 2 16 8 -3
19 -24 26 -47z m-302 -43 c32 -69 84 -146 155 -230 17 -20 38 -57 47 -83 11
-34 25 -53 49 -67 18 -10 42 -35 53 -54 13 -21 28 -34 41 -34 11 0 19 -4 18
-8 -5 -13 49 -72 65 -72 18 0 82 -58 74 -66 -28 -28 -203 109 -270 210 -178
268 -252 391 -271 454 -15 47 7 19 39 -50z m480 -98 c3 -5 1 -10 -4 -10 -6 0
-11 5 -11 10 0 6 2 10 4 10 3 0 8 -4 11 -10z m-75 -25 c19 -7 31 -14 25 -14
-5 -1 -16 -5 -24 -10 -12 -8 -12 -12 -2 -25 11 -14 11 -16 -3 -16 -12 0 -5
-12 24 -42 22 -23 40 -49 40 -58 0 -9 5 -21 12 -28 22 -22 -7 -12 -52 18 -25
16 -50 30 -56 30 -7 0 -22 9 -35 21 l-24 20 25 -6 25 -6 -27 21 c-15 12 -25
27 -22 34 3 7 -2 16 -10 19 -9 4 -16 11 -16 17 0 6 5 8 10 5 6 -3 10 1 10 10
0 11 5 15 16 11 8 -3 12 -2 9 4 -9 14 33 11 75 -5z m-155 -25 c3 -5 2 -10 -4
-10 -5 0 -13 5 -16 10 -3 6 -2 10 4 10 5 0 13 -4 16 -10z m165 -190 c8 -5 11
-10 5 -10 -5 0 -17 5 -25 10 -8 5 -10 10 -5 10 6 0 17 -5 25 -10z m140 -15
c16 -9 19 -14 9 -15 -8 0 -24 7 -35 15 -24 18 -7 19 26 0z m-85 -5 c3 -6 -1
-7 -9 -4 -18 7 -21 14 -7 14 6 0 13 -4 16 -10z m45 -39 c62 -25 63 -41 3 -41
-49 0 -114 25 -121 48 -6 18 65 14 118 -7z m108 -11 c18 -11 39 -20 47 -20 8
0 15 -5 15 -11 0 -19 -59 -2 -92 26 -35 30 -16 33 30 5z m97 -1 l40 -19 -40 6
c-22 3 -51 12 -65 19 l-25 14 25 0 c14 0 43 -9 65 -20z m-15 -75 c0 -9 -28 -3
-46 11 -17 13 -16 14 14 4 17 -6 32 -13 32 -15z m-10 -54 c28 -16 31 -19 14
-20 -12 0 -32 9 -45 20 -30 25 -14 25 31 0z m-73 -6 c-3 -3 -12 -4 -19 -1 -8
3 -5 6 6 6 11 1 17 -2 13 -5z m-17 -58 c0 -3 -4 -8 -10 -11 -5 -3 -10 -1 -10
4 0 6 5 11 10 11 6 0 10 -2 10 -4z m120 -6 c0 -5 -2 -10 -4 -10 -3 0 -8 5 -11
10 -3 6 -1 10 4 10 6 0 11 -4 11 -10z m70 -19 c0 -5 -9 -7 -20 -4 -11 3 -20 7
-20 9 0 2 9 4 20 4 11 0 20 -4 20 -9z m145 -11 c-3 -5 -13 -10 -21 -10 -8 0
-12 5 -9 10 3 6 13 10 21 10 8 0 12 -4 9 -10z m-230 -95 c94 -47 111 -52 99
-34 -4 7 -1 10 7 7 8 -3 13 -10 12 -15 -1 -5 35 -24 80 -42 90 -35 241 -62
346 -61 122 1 280 -6 286 -12 14 -13 -93 -21 -214 -15 -136 7 -352 38 -441 63
-78 22 -260 101 -290 125 -16 13 0 8 45 -14 39 -19 81 -37 95 -41 14 -4 -2 7
-35 23 -63 30 -107 60 -90 61 6 0 51 -20 100 -45z m5 35 c0 -5 -4 -10 -10 -10
-5 0 -10 5 -10 10 0 6 5 10 10 10 6 0 10 -4 10 -10z m570 -45 c0 -27 -31 -48
-38 -26 -3 9 -7 9 -18 0 -25 -21 -28 0 -4 26 31 33 60 33 60 0z m57 -22 c-1
-14 -9 -29 -17 -31 -13 -5 -13 -3 0 13 14 17 13 18 -2 12 -24 -9 -33 9 -11 22
27 16 32 13 30 -16z m481 21 c96 -10 62 -24 -59 -24 -100 0 -121 5 -102 23 8
9 82 9 161 1z m122 -8 c0 -3 -4 -8 -10 -11 -5 -3 -10 -1 -10 4 0 6 5 11 10 11
6 0 10 -2 10 -4z m265 -6 c-29 -12 -98 -12 -90 0 3 6 30 10 58 9 38 0 47 -3
32 -9z m-810 -20 c-3 -5 -10 -10 -16 -10 -5 0 -9 5 -9 10 0 6 7 10 16 10 8 0
12 -4 9 -10z m-417 -29 c91 -21 112 -31 65 -31 -31 0 -163 37 -163 45 0 7 8 6
98 -14z m424 -3 c-7 -7 -12 -8 -12 -2 0 14 12 26 19 19 2 -3 -1 -11 -7 -17z
m72 -2 c-10 -8 -21 -12 -24 -9 -3 2 4 11 14 19 11 7 22 12 25 9 2 -3 -4 -12
-15 -19z"/>
<path d="M720 1985 c0 -20 5 -25 25 -25 26 0 29 7 19 34 -10 27 -44 20 -44 -9z"/>
<path d="M802 1988 c-7 -7 -12 -17 -12 -22 0 -8 3 -7 8 0 4 6 16 16 27 22 15
8 16 11 5 12 -9 0 -21 -5 -28 -12z"/>
<path d="M511 1949 c-18 -6 -32 -12 -30 -13 9 -7 129 7 129 15 0 12 -55 10
-99 -2z"/>
<path d="M407 1904 c-10 -11 3 -24 24 -24 23 0 25 15 3 24 -19 7 -19 7 -27 0z"/>
<path d="M350 1862 c0 -10 68 -47 75 -41 2 3 -2 15 -11 27 -14 21 -64 32 -64
14z"/>
<path d="M811 1715 c-18 -70 15 -114 38 -52 20 53 23 69 12 63 -6 -4 -11 -16
-11 -26 0 -10 -4 -22 -10 -25 -6 -4 -7 11 -4 39 9 60 -10 61 -25 1z"/>
<path d="M570 1641 c0 -6 5 -13 10 -16 6 -3 10 1 10 9 0 9 -4 16 -10 16 -5 0
-10 -4 -10 -9z"/>
<path d="M520 1618 c0 -16 10 -30 30 -41 29 -18 30 -18 27 2 -2 11 -15 30 -30
41 l-27 21 0 -23z"/>
<path d="M539 1545 c18 -8 36 -15 40 -15 13 1 -45 29 -59 29 -8 0 0 -6 19 -14z"/>
<path d="M472 1538 c4 -14 97 -62 105 -54 7 7 -77 66 -94 66 -8 0 -13 -6 -11
-12z"/>
<path d="M430 1522 c0 -15 46 -52 64 -52 14 0 16 3 8 13 -16 18 -72 49 -72 39z"/>
<path d="M430 1475 c15 -18 7 -19 -23 -4 -15 8 -10 -1 14 -26 20 -21 42 -34
48 -31 18 12 12 44 -11 60 -28 20 -44 21 -28 1z"/>
<path d="M711 1414 c0 -11 3 -14 6 -6 3 7 2 16 -1 19 -3 4 -6 -2 -5 -13z"/>
<path d="M766 1415 c-16 -44 11 -135 41 -135 12 0 14 10 8 53 -4 28 -11 54
-15 57 -3 3 -11 13 -17 24 -9 17 -11 17 -17 1z"/>
<path d="M851 1414 c0 -11 3 -14 6 -6 3 7 2 16 -1 19 -3 4 -6 -2 -5 -13z"/>
<path d="M872 1400 c0 -14 2 -19 5 -12 2 6 2 18 0 25 -3 6 -5 1 -5 -13z"/>
<path d="M571 1385 c-1 -11 10 -44 24 -74 21 -44 28 -51 40 -41 8 6 18 9 24 6
5 -4 13 3 16 14 5 15 -3 33 -30 65 -44 54 -59 58 -39 10 22 -53 16 -55 -11 -5
-16 30 -24 38 -24 25z"/>
<path d="M501 1364 c0 -11 3 -14 6 -6 3 7 2 16 -1 19 -3 4 -6 -2 -5 -13z"/>
<path d="M940 1088 c0 -7 5 -20 10 -28 8 -12 10 -11 10 7 0 12 -4 25 -10 28
-5 3 -10 0 -10 -7z"/>
<path d="M1060 871 c0 -5 5 -13 10 -16 6 -3 10 -2 10 4 0 5 -4 13 -10 16 -5 3
-10 2 -10 -4z"/>
<path d="M1130 767 c0 -16 40 -70 47 -63 6 5 -24 63 -37 71 -5 3 -10 0 -10 -8z"/>
<path d="M2361 1755 c-87 -46 -90 -51 -53 -72 17 -10 36 -28 41 -41 13 -26 15
-610 3 -628 -4 -6 -17 -16 -29 -23 -13 -6 -23 -18 -23 -26 0 -11 23 -13 123
-10 67 2 125 4 130 5 4 0 7 6 7 14 0 8 -19 18 -44 25 -27 7 -47 18 -50 28 -3
10 -8 182 -10 383 -3 201 -5 368 -6 373 0 13 -24 6 -89 -28z"/>
<path d="M3693 1752 c-40 -21 -73 -42 -73 -48 0 -6 14 -17 30 -24 17 -7 35
-21 40 -31 6 -10 10 -144 10 -316 0 -254 -2 -302 -16 -321 -8 -12 -21 -22 -28
-22 -19 0 -29 -30 -13 -36 7 -2 67 -3 133 -2 96 2 119 6 119 18 0 8 -17 18
-45 25 l-45 11 -7 54 c-7 61 6 93 42 105 12 4 23 5 24 3 1 -1 26 -37 54 -78
28 -42 67 -91 86 -109 34 -33 38 -34 108 -32 40 1 78 7 85 12 21 18 3 39 -34
39 -28 0 -45 10 -88 51 -30 28 -76 82 -101 120 -54 79 -55 77 36 138 36 23 76
41 104 45 46 7 65 21 50 36 -5 5 -66 10 -136 12 -98 2 -129 0 -133 -10 -3 -8
9 -19 30 -28 19 -8 35 -18 35 -24 0 -12 -138 -125 -153 -125 -9 0 -13 74 -17
284 -3 177 -9 285 -15 287 -5 1 -43 -14 -82 -34z"/>
<path d="M1653 1716 c-3 -5 13 -24 36 -43 l41 -35 0 -299 c0 -177 -4 -308 -10
-319 -5 -10 -24 -23 -41 -29 -17 -6 -29 -16 -27 -22 6 -18 285 -19 300 -2 8
10 4 15 -17 23 -14 5 -33 10 -41 10 -9 0 -24 5 -35 10 -17 10 -19 23 -19 160
l0 150 58 -1 c88 -2 105 -9 127 -57 18 -39 37 -53 49 -34 2 4 6 57 7 117 3
102 1 110 -16 110 -14 0 -22 -10 -28 -37 -10 -43 -23 -48 -125 -48 l-73 0 3
148 3 147 111 0 c123 0 140 -7 164 -66 8 -17 20 -29 31 -29 19 0 20 7 23 126
l1 25 -258 2 c-143 1 -261 -2 -264 -7z"/>
<path d="M2822 1409 c-52 -10 -140 -56 -153 -80 -11 -22 -2 -47 21 -54 29 -9
66 11 88 49 18 30 27 36 55 36 49 0 72 -30 71 -91 0 -27 -3 -51 -6 -55 -4 -3
-37 -13 -75 -23 -132 -34 -186 -75 -186 -141 0 -47 22 -76 72 -97 37 -16 70
-12 149 19 l53 21 20 -22 c25 -27 64 -27 109 0 62 38 62 59 0 59 -29 0 -40 5
-45 19 -3 11 -5 82 -3 158 2 142 -4 173 -40 191 -29 15 -85 20 -130 11z m83
-259 c4 -6 3 -35 0 -65 -8 -64 -22 -76 -92 -78 -34 -2 -48 3 -59 17 -19 27
-18 70 4 89 41 37 133 60 147 37z"/>
<path d="M3314 1410 c-83 -12 -133 -75 -119 -148 9 -46 38 -73 132 -120 91
-46 106 -60 101 -99 -4 -39 -45 -57 -106 -48 -35 5 -55 16 -86 46 -21 22 -45
38 -53 35 -17 -7 -18 -90 0 -104 21 -17 135 -35 187 -29 64 8 106 30 130 70
24 39 25 78 4 123 -13 27 -34 43 -108 80 -102 51 -126 69 -126 95 0 32 28 49
81 49 45 0 55 -4 91 -40 61 -59 75 -52 57 29 -8 40 -15 52 -32 55 -48 10 -114
13 -153 6z"/>
</g>
</svg>
